<?xml version="1.0" encoding="UTF-8"?>
<svg id="Layer_17" data-name="Layer 17" xmlns="http://www.w3.org/2000/svg" viewBox="0 0 399.71 370">
  <defs>
    <style>
      .cls-1 {
        fill: currentColor;
      }
    </style>
  </defs>
  <path class="cls-1" d="M372.43,91.59c14.32,26.9,22.41,58.55,22.24,93.97-.31,30.82-6.92,59.03-18.54,83.77l6.21,2.56c-2.9,6.29-6.2,12.26-9.71,18.06l27.09,60.6V0h-43.17v55.8c8.53,9.85,16.09,20.75,22.43,32.77l-6.54,3.02Z"/>
  <path class="cls-1" d="M5.05,185.56c.44-46.24,14.71-85.5,38.12-116.22V0H0v350.43l30.14-67.89c-16.17-27.48-25.45-60.17-25.09-96.97Z"/>
  <path class="cls-1" d="M260.97,277.5h-15.8l-.02,9.53c5.62-2.66,10.9-5.86,15.82-9.53Z"/>
  <path class="cls-1" d="M304.78,353.92c-9.15,4.8-18.85,8.78-28.95,12.03l2.41,3.49h30.1v-7.58l-3.56-7.94Z"/>
  <path class="cls-1" d="M134.55,369.44h15.61c-5.28-1.29-10.5-2.75-15.61-4.44v4.44Z"/>
  <rect class="cls-1" x="87.3" y="369.41" width="0" height=".62"/>
  <polygon class="cls-1" points="87.43 369.44 91.94 369.44 91.94 359.35 87.43 369.44"/>
  <path class="cls-1" d="M48.45,79.05h-2.48v-13.39c-.96,1.2-1.87,2.45-2.8,3.68v18.19c1.69-2.89,3.46-5.71,5.29-8.48Z"/>
  <path class="cls-1" d="M268.14,272.04l-.15-.34c-2.25,2.05-4.59,3.98-7.02,5.8h4.91l2.26-5.46Z"/>
  <path class="cls-1" d="M263.55,283.14c2.54-1.52,5-3.14,7.37-4.89l-.33-.75h-4.7l-2.34,5.64Z"/>
  <path class="cls-1" d="M245.14,291.53c.58-.19,1.16-.37,1.74-.57h-1.74v.57Z"/>
  <path class="cls-1" d="M96.95,348.17c11.82,6.82,24.41,12.49,37.6,16.84v-4.37c-12.34-4.94-24.07-11.05-35-18.26l-2.6,5.8Z"/>
  <path class="cls-1" d="M252.41,369.44h11.2c4.14-1.04,8.21-2.2,12.22-3.49l-2.12-3.08c-6.9,2.56-14.01,4.76-21.3,6.57Z"/>
  <path class="cls-1" d="M356.54,66.86v-11.05c-.91-1.05-1.87-2.06-2.8-3.09v10.68c.94,1.15,1.9,2.28,2.8,3.46Z"/>
  <path class="cls-1" d="M134.55,260.1v12.47c5.82,4.99,12.21,9.25,19.06,12.77v-7.27c-7.09-5.07-13.48-11.11-19.06-17.97Z"/>
  <polygon class="cls-1" points="132.58 268.53 131.86 270.15 131.86 270.15 132.58 268.53 132.58 268.53"/>
  <path class="cls-1" d="M372.43,91.59c-4.66-8.76-9.96-17.03-15.89-24.74v32.06l15.89-7.32Z"/>
  <path class="cls-1" d="M43.17,87.53c-15.99,27.4-25.43,60.18-25.78,97.47-.31,31.57,6.38,60.1,18.35,84.93l7.43-16.74V87.53Z"/>
  <path class="cls-1" d="M369.28,282.47c2.44-4.26,4.74-8.64,6.85-13.14l-15.6-6.44,8.75,19.58Z"/>
  <path class="cls-1" d="M244.98,370h5.26c.73-.17,1.44-.38,2.17-.56h-7.42v.56Z"/>
  <polygon class="cls-1" points="245.07 327.8 246.75 323.74 245.08 321.32 245.07 327.8"/>
  <path class="cls-1" d="M246.87,290.95h13.44l3.23-7.81c-5.23,3.13-10.79,5.75-16.67,7.81Z"/>
  <path class="cls-1" d="M260.31,290.95l-13.57,32.79,26.96,39.13c10.13-3.76,19.83-8.29,28.99-13.59l-26.1-58.32h-16.29Z"/>
  <path class="cls-1" d="M134.55,283.36v77.27c6.21,2.49,12.57,4.69,19.06,6.57v-36.33l-19.06-47.52Z"/>
  <polygon class="cls-1" points="120.48 79.05 70.64 79.05 70.64 191.31 120.48 79.05"/>
  <path class="cls-1" d="M131.86,270.15l-1.38,3.07,4.06,10.13v-10.78c-.92-.78-1.8-1.6-2.69-2.42Z"/>
  <path class="cls-1" d="M0,350.43v19.57h43.17v-68.32c-4.73-6.06-9.08-12.45-13.03-19.15L0,350.43Z"/>
  <path class="cls-1" d="M372.62,289.96c-4.82,7.96-10.18,15.45-16.08,22.42v57.62h43.17v-19.44l-27.09-60.6Z"/>
  <path class="cls-1" d="M268.47,271.25c20.63-19.1,33.18-47.91,34.18-82.59l-34.18,82.59Z"/>
  <path class="cls-1" d="M329.07,369.44h4.21v-34.31c-1.38,1.12-2.79,2.2-4.21,3.28v31.03Z"/>
  <path class="cls-1" d="M308.33,361.86v-9.96c-1.19.66-2.34,1.38-3.55,2.01l3.55,7.94Z"/>
  <path class="cls-1" d="M245.34,186.26l19.27,29.01v-119.8c-2.01-1.68-4.08-3.28-6.23-4.77l-12.9,25.73-.14,69.83Z"/>
  <path class="cls-1" d="M144.91,98.82c-21.93,19.64-35.58,49.61-35.58,86.18.26,29.98,9.55,55.84,25.22,75.1v-99.21l19.06,27.67v-72.01l-8.7-17.73Z"/>
  <path class="cls-1" d="M91.94,345.21c-7.46-4.61-14.58-9.69-21.3-15.26v39.48h16.79l4.51-10.09v-14.14Z"/>
  <g>
    <path class="cls-1" d="M299.93,125.02c-1.28-2.36-2.66-4.63-4.09-6.85l11.83,26.48h3.75v8.38l45.13,100.97V98.92l-56.62,26.1Z"/>
    <polygon class="cls-1" points="308.33 140.12 308.33 241.36 356.54 261.25 356.54 253.98 323.27 143.24 308.33 140.12"/>
  </g>
  <path class="cls-1" d="M43.17,283.73v17.95c6.83,8.75,14.44,16.81,22.7,24.14v-11.86c-8.56-9.18-16.18-19.28-22.7-30.23Z"/>
  <path class="cls-1" d="M307.67,144.64l-11.83-26.48c-8.21-12.77-18.75-23.25-31.23-30.83v8.14c23.47,19.55,37.8,51.03,38.12,90.09,0,1.04-.06,2.07-.09,3.1l1.49-3.59v-40.43h3.54Z"/>
  <path class="cls-1" d="M268.14,272.04l.33-.79c-.16.15-.32.3-.48.45l.15.34Z"/>
  <path class="cls-1" d="M271.97,277.5h-1.39l.33.75c.35-.26.71-.49,1.05-.75Z"/>
  <path class="cls-1" d="M245.54,83.19c4.5,2.17,8.78,4.67,12.84,7.51l2.69-5.36c-4.46-2.45-9.13-4.58-14.03-6.3h-1.49v4.15Z"/>
  <path class="cls-1" d="M65.87,313.96v11.86c1.57,1.39,3.14,2.8,4.76,4.14v-11.05c-1.62-1.61-3.2-3.27-4.76-4.94Z"/>
  <path class="cls-1" d="M99.54,342.37c-2.58-1.7-5.11-3.46-7.6-5.28v8.12c1.65,1.02,3.33,1.98,5,2.95l2.6-5.8Z"/>
  <path class="cls-1" d="M333.28,327.07v8.06c8.44-6.82,16.21-14.42,23.26-22.76v-10.55c-6.95,9.18-14.75,17.6-23.26,25.24Z"/>
  <path class="cls-1" d="M308.33,351.9c7.26-4.03,14.19-8.52,20.74-13.49v-7.69c-6.53,5.51-13.45,10.58-20.74,15.15v6.03Z"/>
  <path class="cls-1" d="M153.61,91.87v-7.32c-4.22,2.14-8.27,4.57-12.12,7.29l3.42,6.98c2.77-2.48,5.67-4.81,8.7-6.95Z"/>
  <path class="cls-1" d="M127.57,265.97l-30.45-75.9c1.24,30.86,12.45,57.15,30.45,75.9Z"/>
  <path class="cls-1" d="M356.54,261.25v40.58c4.64-6.13,8.87-12.6,12.73-19.35l-8.75-19.58-3.98-1.64Z"/>
  <path class="cls-1" d="M35.73,269.93c2.29,4.74,4.77,9.34,7.43,13.8v-30.54l-7.43,16.74Z"/>
  <path class="cls-1" d="M271.97,277.5h36.36v-36.14l-6.16-2.54c-7.19,15.87-17.46,28.97-30.2,38.68Z"/>
  <path class="cls-1" d="M308.33,277.5v13.46h20.74v39.77c1.42-1.2,2.82-2.41,4.21-3.65v-49.57h-24.95Z"/>
  <path class="cls-1" d="M302.7,349.28c1.9-1.1,3.77-2.24,5.63-3.41v-54.92h-31.73l26.1,58.32Z"/>
  <path class="cls-1" d="M264.61,87.33v-8.29h-.39l-3.16,6.3c1.19.65,2.39,1.29,3.54,1.99Z"/>
  <path class="cls-1" d="M97.12,190.07c-.06-1.5-.12-2.99-.13-4.51,0-41.57,17.36-74.56,44.5-93.72l-6.28-12.8h-14.73l-49.84,112.27v127.59c6.63,6.59,13.75,12.66,21.3,18.18v-159.94l5.18,12.92Z"/>
  <path class="cls-1" d="M127.57,265.97l2.91,7.26,1.38-3.07c-1.47-1.35-2.9-2.74-4.29-4.19Z"/>
  <path class="cls-1" d="M162.58,277.5v6.29c5.09,2.85,10.49,5.24,16.12,7.17h45.46l-9.27-13.46h-52.31Z"/>
  <path class="cls-1" d="M65.87,44.65V0h-19.9v65.66c6.08-7.57,12.75-14.57,19.9-21.01Z"/>
  <path class="cls-1" d="M353.74,52.72V0h-19.9v34.08c7.1,5.64,13.74,11.87,19.9,18.64Z"/>
  <path class="cls-1" d="M226.06,293.71c3.24-.77,6.4-1.69,9.48-2.75h-11.38l1.9,2.75Z"/>
  <path class="cls-1" d="M157.81,277.5v-53.82h0v53.82h4.76v-75.92l-8.97-13.01v89.52c1.38.98,2.78,1.93,4.2,2.84v-3.42h0Z"/>
  <path class="cls-1" d="M333.84,0h-29.99l-6.04,12.05c12.95,5.92,25.02,13.29,36.03,22.03V0Z"/>
  <path class="cls-1" d="M70.64,0h-4.76v44.65c1.56-1.41,3.15-2.8,4.76-4.15V0Z"/>
  <path class="cls-1" d="M121.65,0h-25.23l8.61,17.56c7.03-3.66,14.3-6.94,21.79-9.76l-5.18-7.8Z"/>
  <path class="cls-1" d="M207.16,296.4c1.94.1,3.9.16,5.88.16,4.91,0,9.69-.33,14.33-.95l-1.31-1.9c-6.04,1.43-12.35,2.35-18.9,2.69Z"/>
  <path class="cls-1" d="M235.54,290.95h9.6v-3.92c-3.1,1.47-6.3,2.78-9.6,3.92Z"/>
  <path class="cls-1" d="M153.61,367.2v2.23h4.2v-1.06c-1.41-.38-2.81-.77-4.2-1.18Z"/>
  <path class="cls-1" d="M107.64,22.85l-2.6-5.3c-12.31,6.41-23.85,14.06-34.4,22.94v11.2c11.05-11.16,23.5-20.8,37-28.84Z"/>
  <path class="cls-1" d="M157.81,280.92v6.45c1.57.71,3.15,1.38,4.76,2.01v-5.6c-1.62-.91-3.2-1.87-4.76-2.87Z"/>
  <path class="cls-1" d="M166.85,290.95c10.67,3.64,22.22,5.61,34.42,5.61,1.99,0,3.95-.06,5.9-.16-10.03-.52-19.55-2.4-28.46-5.45h-11.85Z"/>
  <path class="cls-1" d="M295.62,16.41l2.19-4.36c-10.54-4.82-21.62-8.72-33.2-11.58v3.32c10.8,3.36,21.17,7.57,31.02,12.62Z"/>
  <path class="cls-1" d="M162.58,290.95h4.27c-1.44-.49-2.86-1.01-4.27-1.57v1.57Z"/>
  <polygon class="cls-1" points="227.84 369.44 244.99 369.44 245.07 327.8 227.84 369.44"/>
  <path class="cls-1" d="M157.81,368.38c1.39.37,2.78.71,4.17,1.06h7.09l-11.27-28.08v27.03Z"/>
  <path class="cls-1" d="M353.74,79.05v-15.65c-6.08-7.51-12.73-14.47-19.9-20.86v36.51h19.9Z"/>
  <path class="cls-1" d="M65.87,56.76c-6.34,6.91-12.17,14.35-17.42,22.29h17.42v-22.29Z"/>
  <path class="cls-1" d="M227.37,295.61l17.71,25.71.06-29.79c-5.66,1.86-11.58,3.26-17.77,4.08Z"/>
  <path class="cls-1" d="M250.83,0h-7.81l21.58,48.29V3.79c-4.52-1.41-9.11-2.69-13.78-3.79Z"/>
  <path class="cls-1" d="M153.61,330.88l4.2,10.48v-53.98c-1.42-.64-2.82-1.32-4.2-2.03v45.53Z"/>
  <path class="cls-1" d="M70.64,79.05v-27.35c-1.63,1.64-3.2,3.35-4.76,5.06v22.29h4.76Z"/>
  <path class="cls-1" d="M278.35,79.05h55.49v-36.51c-11.51-10.25-24.33-19.01-38.22-26.13l-23.93,47.73,6.66,14.9Z"/>
  <path class="cls-1" d="M141.98,30.61l-12.57-18.93c-7.51,3.28-14.78,7.01-21.77,11.18l19.84,40.43,14.51-32.67Z"/>
  <path class="cls-1" d="M225.47,156.34l20.01-39.9.06-33.24c-11.53-5.56-24.43-8.86-38.37-9.59-11.34.59-22.13,2.93-32.13,6.79l50.43,75.95Z"/>
  <polygon class="cls-1" points="234.61 197.34 234.61 197.34 220.74 165.78 199.02 209.11 178.22 166.72 164.54 197.34 164.54 197.34 178.22 166.72 162.58 134.83 162.58 201.58 214.89 277.5 245.16 277.5 245.34 186.26 225.47 156.34 220.74 165.78 234.61 197.34"/>
  <path class="cls-1" d="M153.61,116.56l4.2,8.57v-33.74h0v33.74l4.76,9.71v-48.62c-3.09,1.72-6.08,3.62-8.97,5.66v24.68Z"/>
  <path class="cls-1" d="M162.58,86.21c3.99-2.22,8.16-4.15,12.46-5.82l-2.14-3.23c-3.52.95-6.96,2.08-10.32,3.39v5.66Z"/>
  <path class="cls-1" d="M172.89,77.16c8.98-2.43,18.48-3.72,28.37-3.72,1.99,0,3.96.06,5.91.16,1.94-.1,3.89-.16,5.87-.16,12.17,0,23.56,1.95,34,5.61h17.18l.39-.77v-29.98L243.02,0h-78.34c-.71.16-1.4.35-2.11.53v61.1l10.32,15.53Z"/>
  <polygon class="cls-1" points="278.35 79.05 271.69 64.14 264.61 78.27 264.61 79.05 278.35 79.05"/>
  <path class="cls-1" d="M135.21,79.05h18.4v5.51c2.91-1.48,5.9-2.81,8.97-4.01v-18.92l-20.6-31.02-14.51,32.68,7.73,15.76Z"/>
</svg>